<?xml version="1.0" encoding="UTF-8"?>
<svg id="a" xmlns="http://www.w3.org/2000/svg" viewBox="0 0 533.9 545.5">
  <defs>
    <style>
      .cls-1 {
        fill: #fff;
      }
    </style>
  </defs>
  <path class="cls-1" d="M236.7,13.8v116.9c57.3-79.5,114.6-55.8,172-105.3-57.4,10.5-114.7-52.1-172-11.6"/>
  <path class="cls-1" d="M474.4,275.3c0,40.3-2.4,51.5-11.8,64.9-7.6,11.2-27.1,26-50.7,26-47.8,0-55.5-40.7-55.5-80.8v-21.2c0-39.1,2.4-80.9,57.1-81.9h0l1.9-.1,1.9.1h0c54.7,1,57.1,42.8,57.1,81.9v11.1h0ZM533.9,275.3v-14.7c0-62.8-17.8-109.3-58.2-128.1-21-9.8-39.8-10.5-59.4-10.5-3.1,0-1,0-1,0,0,0,2.1,0-.9,0-20.4,0-40,.8-59.6,10.4-45.2,22.2-58,72.9-58,128.1v32.5c0,63.1,18.9,126.8,100.8,126.8,30.7,0,57.8-5,76.7-25.6v42.2c0,29.5-29.5,52.5-65.4,52.5s-54.8-9-70.1-27.9l-40.2,29.1c20.6,31.8,54.8,55.4,109.1,55.4,79.6,0,126.2-46,126.2-107.9v-162.3h0Z"/>
  <path class="cls-1" d="M177.9,294.4h-74.9c-36.9,0-47.4,19.9-47.4,35.1,0,20.5,14.1,39.2,55.6,39.2,73.2,0,66.7-35.7,66.7-62v-12.3ZM108.3,422.5C34.8,422.5,0,379.8,0,337.1c0-60.9,43.9-91.3,98.9-91.3h79v-25.2c0-29.3-21.6-43.3-57.3-43.3s-51.8,7.7-64.3,25.2l-41.6-31.6c20.5-31.6,50.9-49.7,104.7-49.7,68.5,0,117.6,27.5,117.6,97.1v74c0,100.1-36.8,130.2-128.7,130.2"/>
</svg>